<svg xmlns="http://www.w3.org/2000/svg" viewBox="0 0 720 1210" role="img" aria-labelledby="title desc">
  <title id="title">Vijf aangrijpingspunten voor emotieregulatie op kleine schermen</title>
  <desc id="desc">Een verticale route met situatie kiezen, situatie veranderen, aandacht verschuiven, betekenis herzien en reactie beïnvloeden.</desc>
  <defs><linearGradient id="emb" x1="0" y1="0" x2="1" y2="1"><stop stop-color="#26172f"/><stop offset=".62" stop-color="#4a2948"/><stop offset="1" stop-color="#7b4a4f"/></linearGradient><marker id="ema" viewBox="0 0 10 10" refX="8" refY="5" markerWidth="7" markerHeight="7" orient="auto"><path d="M0 0l10 5-10 5z" fill="#f0c66b"/></marker></defs>
  <rect width="720" height="1210" rx="36" fill="url(#emb)"/>
  <circle cx="630" cy="100" r="210" fill="#f0c66b" opacity=".08"/>
  <text x="54" y="62" fill="#f0c66b" font-family="Arial, sans-serif" font-size="14" font-weight="700" letter-spacing="3">LEESKAART · EMOTIEREGULATIE</text>
  <text x="54" y="112" fill="#fffdf9" font-family="Georgia, serif" font-size="34" font-weight="700">Vijf plaatsen waar</text>
  <text x="54" y="152" fill="#fffdf9" font-family="Georgia, serif" font-size="34" font-weight="700">beweging mogelijk is.</text>
  <text x="54" y="184" fill="#fff" fill-opacity=".62" font-family="Arial, sans-serif" font-size="15">Geen verplichte stappen. Geen vaste rangorde.</text>

  <path d="M93 262v685" fill="none" stroke="#f0c66b" stroke-width="4" stroke-opacity=".7"/>
  <g font-family="Arial, sans-serif">
    <g transform="translate(54 222)"><circle cx="39" cy="40" r="34" fill="#f0c66b"/><text x="39" y="49" text-anchor="middle" fill="#301c35" font-size="22" font-weight="800">01</text><rect x="86" width="580" height="114" rx="24" fill="#fff" fill-opacity=".09" stroke="#fff" stroke-opacity=".16"/><text x="118" y="36" fill="#f0c66b" font-size="12" font-weight="700" letter-spacing="2">SITUATIE</text><text x="118" y="71" fill="#fffdf9" font-family="Georgia, serif" font-size="27" font-weight="700">Kiezen</text><text x="118" y="96" fill="#fff" fill-opacity=".55" font-size="14">opzoeken · uitstellen · vermijden</text></g>
    <path d="M93 340v45" stroke="#f0c66b" stroke-width="3" marker-end="url(#ema)"/>
    <g transform="translate(54 392)"><circle cx="39" cy="40" r="34" fill="#f0c66b"/><text x="39" y="49" text-anchor="middle" fill="#301c35" font-size="22" font-weight="800">02</text><rect x="86" width="580" height="114" rx="24" fill="#fff" fill-opacity=".09" stroke="#fff" stroke-opacity=".16"/><text x="118" y="36" fill="#f0c66b" font-size="12" font-weight="700" letter-spacing="2">SITUATIE</text><text x="118" y="71" fill="#fffdf9" font-family="Georgia, serif" font-size="27" font-weight="700">Veranderen</text><text x="118" y="96" fill="#fff" fill-opacity=".55" font-size="14">grens · informatie · afstand · steun</text></g>
    <path d="M93 510v45" stroke="#f0c66b" stroke-width="3" marker-end="url(#ema)"/>
    <g transform="translate(54 562)"><circle cx="39" cy="40" r="34" fill="#f0c66b"/><text x="39" y="49" text-anchor="middle" fill="#301c35" font-size="22" font-weight="800">03</text><rect x="86" width="580" height="114" rx="24" fill="#fff" fill-opacity=".09" stroke="#fff" stroke-opacity=".16"/><text x="118" y="36" fill="#f0c66b" font-size="12" font-weight="700" letter-spacing="2">AANDACHT</text><text x="118" y="71" fill="#fffdf9" font-family="Georgia, serif" font-size="27" font-weight="700">Verschuiven</text><text x="118" y="96" fill="#fff" fill-opacity=".55" font-size="14">richten · afleiden · vernauwen</text></g>
    <path d="M93 680v45" stroke="#f0c66b" stroke-width="3" marker-end="url(#ema)"/>
    <g transform="translate(54 732)"><circle cx="39" cy="40" r="34" fill="#f0c66b"/><text x="39" y="49" text-anchor="middle" fill="#301c35" font-size="22" font-weight="800">04</text><rect x="86" width="580" height="114" rx="24" fill="#fff" fill-opacity=".09" stroke="#fff" stroke-opacity=".16"/><text x="118" y="36" fill="#f0c66b" font-size="12" font-weight="700" letter-spacing="2">BETEKENIS</text><text x="118" y="71" fill="#fffdf9" font-family="Georgia, serif" font-size="27" font-weight="700">Herzien</text><text x="118" y="96" fill="#fff" fill-opacity=".55" font-size="14">duiden · onderzoeken · herkaderen</text></g>
    <path d="M93 850v45" stroke="#f0c66b" stroke-width="3" marker-end="url(#ema)"/>
    <g transform="translate(54 902)"><circle cx="39" cy="40" r="34" fill="#301c35"/><text x="39" y="49" text-anchor="middle" fill="#f0c66b" font-size="22" font-weight="800">05</text><rect x="86" width="580" height="114" rx="24" fill="#f0c66b"/><text x="118" y="36" fill="#301c35" font-size="12" font-weight="800" letter-spacing="2">REACTIE</text><text x="118" y="71" fill="#301c35" font-family="Georgia, serif" font-size="27" font-weight="700">Beïnvloeden</text><text x="118" y="96" fill="#301c35" fill-opacity=".7" font-size="14">ademen · bewegen · uiten · wachten</text></g>
  </g>
  <text x="54" y="1065" fill="#f0c66b" font-family="Arial, sans-serif" font-size="13" font-weight="700" letter-spacing="2">WAT MEE BEPAALT WAT PASSEND IS</text>
  <g fill="#fff" fill-opacity=".09" stroke="#fff" stroke-opacity=".14"><rect x="54" y="1088" width="184" height="44" rx="22"/><rect x="250" y="1088" width="184" height="44" rx="22"/><rect x="446" y="1088" width="220" height="44" rx="22"/><rect x="54" y="1144" width="184" height="44" rx="22"/><rect x="250" y="1144" width="184" height="44" rx="22"/><rect x="446" y="1144" width="220" height="44" rx="22"/></g>
  <g fill="#fffdf9" font-family="Arial, sans-serif" font-size="14" text-anchor="middle"><text x="146" y="1116">doel</text><text x="342" y="1116">intensiteit</text><text x="556" y="1116">veiligheid</text><text x="146" y="1172">relaties</text><text x="342" y="1172">cultuur</text><text x="556" y="1172">timing</text></g>
</svg>
