<svg xmlns="http://www.w3.org/2000/svg" viewBox="0 0 1200 720" role="img" aria-labelledby="title desc">
  <title id="title">Persoonlijkheid als bewegend patroon</title>
  <desc id="desc">Een vingerafdruk vloeit over in vier lagen: trekken, situaties, doelen en verhalen.</desc>
  <defs>
    <linearGradient id="bg" x1="0" y1="0" x2="1" y2="1">
      <stop offset="0" stop-color="#102f31"/>
      <stop offset=".52" stop-color="#174c49"/>
      <stop offset="1" stop-color="#4b2b49"/>
    </linearGradient>
    <radialGradient id="glow" cx="0" cy="0" r="1" gradientTransform="translate(895 150) rotate(132) scale(475)">
      <stop stop-color="#edbd58" stop-opacity=".3"/>
      <stop offset="1" stop-color="#edbd58" stop-opacity="0"/>
    </radialGradient>
    <filter id="soft" x="-20%" y="-20%" width="140%" height="140%"><feGaussianBlur stdDeviation="18"/></filter>
  </defs>
  <rect width="1200" height="720" rx="30" fill="url(#bg)"/>
  <rect width="1200" height="720" rx="30" fill="url(#glow)"/>
  <circle cx="286" cy="360" r="205" fill="#f7ead0" opacity=".055"/>
  <circle cx="286" cy="360" r="155" fill="none" stroke="#edbd58" stroke-opacity=".13" stroke-width="32" filter="url(#soft)"/>

  <g fill="none" stroke="#f2ca76" stroke-width="10" stroke-linecap="round" opacity=".96">
    <path d="M285 224c-72 0-130 58-130 130 0 49-5 93-17 132"/>
    <path d="M387 279a130 130 0 0 1 28 81c0 52 1 94 12 137"/>
    <path d="M214 505c19-57 23-99 23-151a49 49 0 0 1 85-33"/>
    <path d="M351 353c0 61-1 127 18 188"/>
    <path d="M286 353c0 61-4 123-28 183"/>
    <path d="M107 354c0-99 80-179 179-179 49 0 94 20 126 52"/>
    <path d="M448 557c-22-63-24-126-24-197"/>
    <path d="M178 569c29-66 41-137 41-215a67 67 0 0 1 119-42"/>
  </g>
  <g fill="#fff8e8">
    <text x="535" y="180" font-family="Georgia, serif" font-size="64" font-weight="700">Je bent geen type.</text>
    <text x="538" y="233" font-family="Arial, sans-serif" font-size="23" fill="#d7e3df">Je bent een herkenbaar patroon dat beweegt</text>
    <text x="538" y="266" font-family="Arial, sans-serif" font-size="23" fill="#d7e3df">door situaties, relaties en tijd.</text>
  </g>
  <g font-family="Arial, sans-serif" font-size="18" font-weight="700">
    <g transform="translate(540 344)"><rect width="244" height="76" rx="18" fill="#fff" fill-opacity=".09" stroke="#fff" stroke-opacity=".14"/><circle cx="38" cy="38" r="14" fill="#edbd58"/><text x="68" y="45" fill="#fff8e8">Trekken</text></g>
    <g transform="translate(808 344)"><rect width="244" height="76" rx="18" fill="#fff" fill-opacity=".09" stroke="#fff" stroke-opacity=".14"/><path d="M834 382h24M846 370v24" stroke="#edbd58" stroke-width="7" stroke-linecap="round"/><text x="876" y="45" fill="#fff8e8">Situaties</text></g>
    <g transform="translate(540 444)"><rect width="244" height="76" rx="18" fill="#fff" fill-opacity=".09" stroke="#fff" stroke-opacity=".14"/><path d="M568 487l12-22 12 22z" fill="none" stroke="#edbd58" stroke-width="6"/><text x="608" y="45" fill="#fff8e8">Doelen &amp; waarden</text></g>
    <g transform="translate(808 444)"><rect width="244" height="76" rx="18" fill="#fff" fill-opacity=".09" stroke="#fff" stroke-opacity=".14"/><path d="M834 468c18 0 24 9 24 22-18 0-24-9-24-22z" fill="none" stroke="#edbd58" stroke-width="6"/><text x="876" y="45" fill="#fff8e8">Levensverhalen</text></g>
  </g>
  <path d="M528 570h532" stroke="#fff" stroke-opacity=".16"/>
  <text x="538" y="612" font-family="Arial, sans-serif" font-size="17" fill="#bdd0cb" letter-spacing="2">DE MENSELIJKE ATLAS · PERSOONLIJKHEID &amp; IDENTITEIT</text>
</svg>
